# This file uses centimeters as units for non-parametric coordinates.

mtllib Sqstairs.mtl
g default
v -0.551739 0.973403 -0.697431
v -0.551740 0.973403 1.022144
v -0.551739 1.014550 -0.697431
v -0.551740 1.014550 1.022144
v 0.938505 1.014550 -0.697431
v 0.938505 1.014550 1.022144
v 0.938505 0.973403 -0.697431
v 0.938505 0.973403 1.022144
v 0.938505 1.014550 0.960297
v 0.938505 1.014550 -0.697431
v -0.551739 1.014550 -0.697431
v -0.551740 1.014550 0.960297
v 0.938505 1.061052 0.960297
v 0.938505 1.061052 -0.697431
v -0.551739 1.061052 -0.697431
v -0.551740 1.061052 0.960297
v 0.938505 1.061052 0.887811
v 0.938505 1.061052 -0.697430
v -0.551739 1.061052 -0.697430
v -0.551740 1.061052 0.887811
v 0.938505 1.114140 0.887811
v 0.938505 1.114140 -0.697430
v -0.551739 1.114140 -0.697430
v -0.551740 1.114140 0.887811
v 0.938505 1.114140 0.810409
v 0.938505 1.114140 -0.697430
v -0.551739 1.114140 -0.697430
v -0.551740 1.114140 0.810409
v 0.938505 1.164357 0.810409
v 0.938505 1.164357 -0.697430
v -0.551739 1.164357 -0.697430
v -0.551740 1.164357 0.810409
v 0.938505 1.164357 0.749108
v 0.938505 1.164357 -0.697429
v -0.551739 1.164357 -0.697429
v -0.551740 1.164357 0.749108
v 0.938505 1.219058 0.749108
v 0.938505 1.219058 -0.697429
v -0.551739 1.219058 -0.697429
v -0.551740 1.219058 0.749108
v 0.938505 1.219058 0.664227
v 0.938505 1.219058 -0.697429
v -0.551739 1.219058 -0.697429
v -0.551740 1.219058 0.664227
v 0.938505 1.258339 0.664227
v 0.938505 1.258339 -0.697429
v -0.551739 1.258339 -0.697429
v -0.551740 1.258339 0.664227
vt 0.079766 0.928642
vt 0.079766 0.589083
vt 0.100234 0.589083
vt 0.100234 0.928642
vt 0.318984 0.729943
vt 0.625388 0.768292
vt 0.622521 0.791243
vt 0.316112 0.752895
vt 0.622513 0.791251
vt 0.351892 0.757379
vt 0.619230 0.817457
vt 0.348608 0.783587
vt 0.741213 0.575589
vt 0.526780 0.481328
vt 0.536829 0.458459
vt 0.751265 0.552722
vt 0.536836 0.458450
vt 0.723347 0.540445
vt 0.547786 0.433541
vt 0.734304 0.515535
vt 0.923560 0.000000
vt 0.923560 0.161521
vt 0.904020 0.161521
vt 0.904020 0.000000
vt 0.429502 0.464290
vt 0.100868 0.549729
vt 0.000000 0.161750
vt 0.328634 0.076311
vt 0.348439 0.071161
vt 0.449311 0.459141
vt 0.721526 0.314305
vt 0.870067 0.008953
vt 0.856612 0.036624
vt 0.721533 0.314304
vt 0.173559 0.834120
vt 0.218530 0.528623
vt 0.213285 0.564293
vt 0.173564 0.834124
vt 0.619233 0.817468
vt 0.386807 0.788373
vt 0.786101 0.258013
vt 0.902274 0.011248
vt 0.885879 0.046087
vt 0.786108 0.258015
vt 0.164458 0.613801
vt 0.019062 0.471069
vt 0.049195 0.500642
vt 0.164464 0.613798
vt 0.723027 0.387981
vt 0.566703 0.428619
vt 0.465844 0.040639
vt 0.622168 0.000000
vt 0.547796 0.433531
vt 0.446928 0.045560
vt 0.446919 0.045553
vt 0.695659 0.498541
vt 0.521456 0.440377
vt 0.420589 0.052404
vt 0.857040 0.131581
vt 0.895689 0.148579
vt 0.521450 0.440380
vt 0.420582 0.052406
vt 0.497272 0.446674
vt 0.396402 0.058694
vt 0.497266 0.446677
vt 0.396395 0.058694
vt 0.471708 0.453313
vt 0.370842 0.065335
vt 0.471702 0.453312
vt 0.370837 0.065339
vt 0.449313 0.459139
vt 0.348449 0.071165
vt 0.597379 0.764714
vt 0.583973 0.737033
vt 0.944800 0.562371
vt 0.958203 0.590062
vt 0.224528 0.811307
vt 0.427039 0.465343
vt 0.458157 0.483558
vt 0.255645 0.829522
vt 0.720853 0.615154
vt 0.923503 0.269271
vt 0.956723 0.288735
vt 0.754073 0.634618
vt 0.177259 0.823785
vt 0.379455 0.477636
vt 0.405784 0.493016
vt 0.203589 0.839165
vt 0.960152 0.400877
vt 0.980620 0.400877
vt 0.980620 0.801754
vt 0.960152 0.801754
vt 0.079264 0.568781
vt 0.079264 0.969658
vt 0.056132 0.969658
vt 0.056132 0.568781
vt 0.055950 0.545579
vt 0.055950 0.946456
vt 0.029543 0.946456
vt 0.029543 0.545579
vt 0.982177 0.000000
vt 0.982177 0.400877
vt 0.957198 0.400877
vt 0.957198 0.000000
vt 0.027210 0.519477
vt 0.027210 0.920354
vt 0.000000 0.920354
vt 0.000000 0.519477
vt 0.959011 0.599123
vt 0.959011 1.000000
vt 0.939472 1.000000
vt 0.939472 0.599123
vt 0.703127 0.305349
vt 0.851661 0.000000
vt 0.150670 0.830756
vt 0.195645 0.525254
vt 0.762213 0.246761
vt 0.878382 0.000000
vt 0.679492 0.217036
vt 0.767592 0.000000
vt 0.790737 0.009395
vt 0.702639 0.226427
vt 0.145393 0.633217
vt 0.000000 0.490486
vt 0.664721 0.161521
vt 0.664721 0.000000
vt 0.684260 0.000000
vt 0.684260 0.161521
vt 0.779274 0.037651
vt 0.702645 0.226429
vn -1.000000 0.000000 -0.000000
vn -1.000000 0.000000 -0.000000
vn -1.000000 0.000000 -0.000000
vn -1.000000 0.000000 -0.000000
vn -0.000000 1.000000 0.000000
vn -0.000000 1.000000 0.000000
vn -0.000000 1.000000 0.000000
vn -0.000000 1.000000 0.000000
vn 1.000000 0.000000 -0.000000
vn 1.000000 0.000000 -0.000000
vn 1.000000 0.000000 -0.000000
vn 1.000000 0.000000 -0.000000
vn 0.000000 -1.000000 0.000000
vn 0.000000 -1.000000 0.000000
vn 0.000000 -1.000000 0.000000
vn 0.000000 -1.000000 0.000000
vn 0.000000 0.000000 1.000000
vn 0.000000 0.000000 1.000000
vn 0.000000 0.000000 1.000000
vn 0.000000 0.000000 1.000000
vn -0.000000 0.000000 -1.000000
vn -0.000000 0.000000 -1.000000
vn -0.000000 0.000000 -1.000000
vn -0.000000 0.000000 -1.000000
vn 0.000000 0.000000 -0.000000
vn 0.024012 0.999712 -0.000000
vn 0.024012 0.999712 -0.000000
vn 0.024012 0.999712 -0.000000
vn 0.000000 1.000000 0.000000
vn 0.000000 1.000000 0.000000
vn 0.000000 1.000000 0.000000
vn 0.000000 1.000000 0.000000
vn -0.000000 -0.000000 0.000000
vn -0.000000 -0.000000 0.000000
vn -0.100194 -0.994968 0.000000
vn -0.100194 -0.994968 0.000000
vn 0.000000 1.000000 0.000000
vn 0.000000 1.000000 0.000000
vn 0.000000 1.000000 0.000000
vn 0.000000 1.000000 0.000000
vn 1.000000 0.000000 -0.000000
vn 1.000000 0.000000 -0.000000
vn 1.000000 0.000000 -0.000000
vn 1.000000 0.000000 -0.000000
vn -0.000000 0.000000 -1.000000
vn -0.000000 0.000000 -1.000000
vn -0.000000 0.000000 -1.000000
vn -0.000000 0.000000 -1.000000
vn -1.000000 0.000000 -0.000000
vn -1.000000 0.000000 -0.000000
vn -1.000000 0.000000 -0.000000
vn -1.000000 0.000000 -0.000000
vn 0.000000 0.000000 1.000000
vn 0.000000 0.000000 1.000000
vn 0.000000 0.000000 1.000000
vn 0.000000 0.000000 1.000000
vn -0.000000 0.000000 0.000000
vn -0.000000 0.000000 0.000000
vn -1.000000 0.000000 0.000000
vn -1.000000 0.000000 0.000000
vn 0.000000 1.000000 0.000000
vn 0.000000 1.000000 0.000000
vn 0.000000 1.000000 0.000000
vn 0.000000 1.000000 0.000000
vn 0.000000 -0.000000 -0.000000
vn 0.000000 -0.000000 -0.000000
vn 0.207116 -0.978316 -0.000000
vn 0.207116 -0.978316 -0.000000
vn -0.000000 1.000000 0.000000
vn -0.000000 1.000000 0.000000
vn -0.000000 1.000000 0.000000
vn -0.000000 1.000000 0.000000
vn 1.000000 0.000000 -0.000000
vn 1.000000 0.000000 -0.000000
vn 1.000000 0.000000 -0.000000
vn 1.000000 0.000000 -0.000000
vn -0.000000 0.000000 -1.000000
vn -0.000000 0.000000 -1.000000
vn -0.000000 0.000000 -1.000000
vn -0.000000 0.000000 -1.000000
vn -1.000000 0.000000 -0.000000
vn -1.000000 0.000000 -0.000000
vn -1.000000 0.000000 -0.000000
vn -1.000000 0.000000 -0.000000
vn 0.000000 0.000000 1.000000
vn 0.000000 0.000000 1.000000
vn 0.000000 0.000000 1.000000
vn 0.000000 0.000000 1.000000
vn 0.000000 -0.000000 -0.000000
vn 0.000000 -0.000000 -0.000000
vn 0.216481 -0.976287 -0.000000
vn 0.216481 -0.976287 -0.000000
vn 0.000000 1.000000 0.000000
vn 0.000000 1.000000 0.000000
vn 0.000000 1.000000 0.000000
vn 0.000000 1.000000 0.000000
vn 0.000000 -0.000000 -0.000000
vn 0.000000 -0.000000 -0.000000
vn 0.097829 -0.995203 -0.000000
vn 0.097829 -0.995203 -0.000000
vn 0.000000 1.000000 0.000000
vn 0.000000 1.000000 0.000000
vn 0.000000 1.000000 0.000000
vn 0.000000 1.000000 0.000000
vn 1.000000 0.000000 -0.000000
vn 1.000000 0.000000 -0.000000
vn 1.000000 0.000000 -0.000000
vn 1.000000 0.000000 -0.000000
vn -0.000000 0.000000 -1.000000
vn -0.000000 0.000000 -1.000000
vn -0.000000 0.000000 -1.000000
vn -0.000000 0.000000 -1.000000
vn -1.000000 0.000000 -0.000001
vn -1.000000 0.000000 -0.000001
vn -1.000000 0.000000 -0.000001
vn -1.000000 0.000000 -0.000001
vn 0.000000 0.000000 1.000000
vn 0.000000 0.000000 1.000000
vn 0.000000 0.000000 1.000000
vn 0.000000 0.000000 1.000000
vn 0.000000 -0.000000 -0.000000
vn 0.000000 -0.000000 -0.000000
vn 0.403577 -0.914946 -0.000000
vn 0.403577 -0.914946 -0.000000
vn 0.000000 1.000000 0.000000
vn 0.000000 1.000000 0.000000
vn 0.000000 1.000000 0.000000
vn 0.000000 1.000000 0.000000
vn -0.000000 -0.000000 0.000000
vn -0.000000 -0.000000 0.000000
vn -0.801512 -0.597979 0.000000
vn -0.801512 -0.597979 0.000000
vn -0.000000 1.000000 0.000000
vn -0.000000 1.000000 0.000000
vn -0.000000 1.000000 0.000000
vn -0.000000 1.000000 0.000000
vn 1.000000 0.000000 -0.000000
vn 1.000000 0.000000 -0.000000
vn 1.000000 0.000000 -0.000000
vn 1.000000 0.000000 -0.000000
vn -0.000000 0.000000 -1.000000
vn -0.000000 0.000000 -1.000000
vn -0.000000 0.000000 -1.000000
vn -0.000000 0.000000 -1.000000
vn -1.000000 0.000000 -0.000001
vn -1.000000 0.000000 -0.000001
vn -1.000000 0.000000 -0.000001
vn -1.000000 0.000000 -0.000001
vn 0.000000 0.000000 1.000000
vn 0.000000 0.000000 1.000000
vn 0.000000 0.000000 1.000000
vn 0.000000 0.000000 1.000000
vn 0.000000 0.000000 -0.000000
vn 0.000000 0.000000 -0.000000
vn 0.336582 0.941654 -0.000000
vn 0.336582 0.941654 -0.000000
vn 0.000000 1.000000 0.000000
vn 0.000000 1.000000 0.000000
vn 0.000000 1.000000 0.000000
vn 0.000000 1.000000 0.000000
vn 0.000000 -0.000000 -0.000000
vn 0.000000 -0.000000 -0.000000
vn 0.419287 -0.907854 -0.000000
vn 0.419287 -0.907854 -0.000000
vn 0.000000 1.000000 0.000000
vn 0.000000 1.000000 0.000000
vn 0.000000 1.000000 0.000000
vn 0.000000 1.000000 0.000000
vn 1.000000 0.000000 -0.000000
vn 1.000000 0.000000 -0.000000
vn 1.000000 0.000000 -0.000000
vn 1.000000 0.000000 -0.000000
vn -0.000000 0.000000 -1.000000
vn -0.000000 0.000000 -1.000000
vn -0.000000 0.000000 -1.000000
vn -0.000000 0.000000 -1.000000
vn -1.000000 0.000000 -0.000001
vn -1.000000 0.000000 -0.000001
vn -1.000000 0.000000 -0.000001
vn -1.000000 0.000000 -0.000001
vn 0.000000 0.000000 1.000000
vn 0.000000 0.000000 1.000000
vn 0.000000 0.000000 1.000000
vn 0.000000 0.000000 1.000000
s off
g sqstairs
usemtl initialShadingGroup
f 1/113/1 2/114/2 4/32/3 3/31/4
f 45/49/5 46/50/6 47/51/7 48/52/8
f 5/1/9 6/2/10 8/3/11 7/4/12
f 7/25/13 8/26/14 2/27/15 1/28/16
f 8/89/17 6/90/18 4/91/19 2/92/20
f 3/29/21 5/30/22 7/25/23 1/28/24
f 6/73/25 5/30/26 10/71/27 9/74/28
f 10/71/29 5/30/30 3/29/31 11/72/32
f 3/31/33 4/32/34 12/33/35 11/34/36
f 9/74/37 12/75/38 4/76/39 6/73/40
f 9/5/41 10/6/42 14/7/43 13/8/44
f 14/69/45 10/71/46 11/72/47 15/70/48
f 11/115/49 12/116/50 16/36/51 15/35/52
f 13/93/53 16/94/54 12/95/55 9/96/56
f 13/8/57 14/7/58 18/9/59 17/10/60
f 18/67/61 14/69/62 15/70/63 19/68/64
f 15/35/65 16/36/66 20/37/67 19/38/68
f 17/77/69 20/78/70 16/79/71 13/80/72
f 17/10/73 18/9/74 22/11/75 21/12/76
f 22/65/77 18/67/78 19/68/79 23/66/80
f 19/117/81 20/118/82 24/42/83 23/41/84
f 21/97/85 24/98/86 20/99/87 17/100/88
f 21/12/89 22/11/90 26/39/91 25/40/92
f 26/63/93 22/65/94 23/66/95 27/64/96
f 23/41/97 24/42/98 28/43/99 27/44/100
f 25/81/101 28/82/102 24/83/103 21/84/104
f 25/13/105 26/14/106 30/15/107 29/16/108
f 30/61/109 26/63/110 27/64/111 31/62/112
f 27/119/113 28/120/114 32/121/115 31/122/116
f 29/101/117 32/102/118 28/103/119 25/104/120
f 29/16/121 30/15/122 34/17/123 33/18/124
f 34/57/125 30/61/126 31/62/127 35/58/128
f 31/122/129 32/121/130 36/129/131 35/130/132
f 33/85/133 36/86/134 32/87/135 29/88/136
f 33/18/137 34/17/138 38/19/139 37/20/140
f 38/19/141 34/57/142 35/58/143 39/55/144
f 35/123/145 36/124/146 40/46/147 39/45/148
f 37/105/149 40/106/150 36/107/151 33/108/152
f 37/20/153 38/19/154 42/53/155 41/56/156
f 42/53/157 38/19/158 39/55/159 43/54/160
f 39/45/161 40/46/162 44/47/163 43/48/164
f 41/56/165 44/59/166 40/60/167 37/20/168
f 41/21/169 42/22/170 46/23/171 45/24/172
f 46/50/173 42/53/174 43/54/175 47/51/176
f 43/125/177 44/126/178 48/127/179 47/128/180
f 45/109/181 48/110/182 44/111/183 41/112/184
